<svg width="24" height="168" xmlns="http://www.w3.org/2000/svg">
        <symbol id="light_from">
            <g fill="none" fill-rule="evenodd">
                <path d="M-1140-250H226v768h-1366z" />
                <path d="M0 0h24v24H0z" />
                <g transform="translate(1 1)" stroke-linecap="round" stroke-linejoin="round" stroke="#fff">
                    <circle cx="11" cy="11" r="5" />
                    <path d="M11 0v2m0 18v2M3.22 3.22l1.42 1.42m12.72 12.72l1.42 1.42M0 11h2m18 0h2M3.22 18.78l1.42-1.42M17.36 4.64l1.42-1.42" />
                </g>
            </g>
        </symbol>
        <symbol id="light_to">
            <g fill="none" fill-rule="evenodd">
                <path d="M-1140-250H226v768h-1366z" />
                <path d="M0 0h24v24H0z" />
                <g transform="translate(1 1)" stroke-linecap="round" stroke-linejoin="round" stroke-width="2" stroke="#fff">
                    <circle cx="11" cy="11" r="5" />
                    <path d="M11 0v2m0 18v2M3.22 3.22l1.42 1.42m12.72 12.72l1.42 1.42M0 11h2m18 0h2M3.22 18.78l1.42-1.42M17.36 4.64l1.42-1.42" />
                </g>
            </g>
        </symbol>
        <symbol id="clock">
            <g fill="none" fill-rule="evenodd">
                <path d="M-925-250H441v768H-925z" />
                <path d="M0 0h24v24H0z" />
                <g transform="translate(2 2)" stroke="#000" stroke-linecap="round" stroke-linejoin="round" stroke-width="2">
                    <circle cx="10" cy="10" r="10" />
                    <path opacity=".3" d="M10 4v6l3 3" />
                </g>
            </g>
        </symbol>
        <symbol id="light_off">
            <g fill="none" fill-rule="evenodd">
                <path d="M-1140-250H226v768h-1366z" />
                <path d="M0 0h24v24H0z" />
                <g transform="translate(1 1)" stroke-linecap="round" stroke-linejoin="round" stroke-width="2" stroke="#333">
                    <circle stroke-opacity=".4" cx="11" cy="11" r="5" />
                    <path stroke-opacity=".1" d="M11 0v2m0 18v2M3.22 3.22l1.42 1.42m12.72 12.72l1.42 1.42M0 11h2m18 0h2M3.22 18.78l1.42-1.42M17.36 4.64l1.42-1.42" />
                </g>
            </g>
        </symbol>
        <symbol id="light_on">
            <g fill="none" fill-rule="evenodd">
                <path d="M-1140-250H226v768h-1366z" />
                <path d="M0 0h24v24H0z" />
                <g transform="translate(1 1)" stroke-linecap="round" stroke-linejoin="round" stroke-width="2">
                    <circle stroke="#F5A623" cx="11" cy="11" r="5" />
                    <path d="M11 0v2m0 18v2M3.22 3.22l1.42 1.42m12.72 12.72l1.42 1.42M0 11h2m18 0h2M3.22 18.78l1.42-1.42M17.36 4.64l1.42-1.42" stroke="#FFD93E" />
                </g>
            </g>
        </symbol>
        <symbol id="temp_of">
            <g fill="none" fill-rule="evenodd">
                <path d="M0 0h24v24H0z" />
                <path d="M14 14.76V3.5a2.5 2.5 0 1 0-5 0v11.26a4.5 4.5 0 1 0 5 0z" stroke-opacity=".4" stroke="#333" stroke-width="2" stroke-linecap="round" stroke-linejoin="round" />
                <circle fill-opacity=".1" fill="#333" fill-rule="nonzero" cx="11.5" cy="18.5" r="3.5" />
            </g>
        </symbol>
        <symbol id="temp_on">
            <g fill="none" fill-rule="evenodd">
                <path d="M0 0h24v24H0z" />
                <path d="M14 14.76V3.5a2.5 2.5 0 1 0-5 0v11.26a4.5 4.5 0 1 0 5 0z" stroke="#F5A623" stroke-width="2" stroke-linecap="round" stroke-linejoin="round" />
                <circle fill="#FFD93E" fill-rule="nonzero" cx="11.5" cy="18.5" r="3.5" />
            </g>
        </symbol>
</svg>